<svg id="monogram-1" xmlns="http://www.w3.org/2000/svg" width="191.959" height="191.959" viewBox="0 0 1390 1390">
  <defs>
    <style>
      .cls-1 {
        font-size: 315.912px;
      }

      .cls-1, .cls-2 {
        text-anchor: middle;
        font-family: Hello;
      }

      .cls-2 {
        font-size: 1198.208px;
      }

      .cls-3 {
        stroke: #000;
        stroke-width: 20px;
        fill-rule: evenodd;
      }
    </style>
  </defs>
  <text id="m" class="cls-1" transform="translate(446.422 1040.836) scale(3.79 3.793)"><tspan x="0">m</tspan></text>
  <text id="n" class="cls-2" x="1034" y="922"><tspan x="1034">n</tspan></text>
  <path id="heart" class="cls-3" d="M791.848,612.04c-38.664,0-71.174,33.335-79.866,78.078-8.692-44.743-41.2-78.078-79.866-78.078-45.3,0-82.148,45.758-82.148,102,0,47.872,27.152,99.764,80.7,154.234a566.864,566.864,0,0,0,80.238,67.387,1.9,1.9,0,0,0,2.148,0,566.864,566.864,0,0,0,80.238-67.387c53.549-54.47,80.7-106.362,80.7-154.234C874,657.8,837.144,612.04,791.848,612.04Z"/>
</svg>
